<?xml version="1.0" encoding="utf-8"?>
<!-- Generator: Adobe Illustrator 26.3.1, SVG Export Plug-In . SVG Version: 6.00 Build 0)  -->
<svg version="1.1" id="Calque_1" xmlns="http://www.w3.org/2000/svg" xmlns:xlink="http://www.w3.org/1999/xlink" x="0px" y="0px"
	 viewBox="0 0 283.5 283.5" style="enable-background:new 0 0 283.5 283.5;" xml:space="preserve">
<g id="XMLID_2_">
	<g>
		<path d="M273.8,163.2c-5.5,13.6-22.7,15.4-38.1,19.1c-1.7,17.1,8.3,29.8-2.7,43.6c-17.5-0.7-20.3-16-19.1-35.4c-2.7,0-5.4,0-8.2,0
			c-5.7,7.5,2.5,12.3,0,21.8c-3.1,11.8-21.5,21.5-30,19.1c-5.9-1.7-16.2-18.1-13.6-32.7c7.7-7.4,7.5,8.5,16.3,8.2
			c13.8-21.4-26.2-23.3-21.8-46.3c3.4-17.5,31.8-26.3,40.9-2.7c4.2,11.5-14.1,0.4-13.6,8.2c-0.8,4.4,2.6,4.7,2.7,8.2
			c6.9,2.1,4.6-5.9,8.2-8.2c5.1-3.2,8.4-2,16.3-2.7c6.7-6.9,2.9-24.3,10.9-30c10.5,1.3,16.6,7.1,16.3,19.1
			C257.5,149.9,266.5,149.7,273.8,163.2z"/>
		<path d="M246.6,59.7c1.7,8.7,6.3,13.6,5.4,21.8c-0.9,8.7-7.9,24-10.9,24.5c-3.2,0.5-3.6,4.8-5.4,5.4c-12.7,4.3-33.7-4-38.1-19.1
			c-3.2-10.8,5.2-36.4,10.9-46.3c3.5-6.1,3.3-8.1,13.6-10.9c6.6-1.8,9.9-6.1,16.3,0c1.3,1.2,3.5,1.3,5,2.4c-0.5,0,5.4,8.6,5.9,11.2
			C250.2,54.5,246,56.4,246.6,59.7z M224.8,84.2c4.8-5.1,9-11,8.2-21.8C220.7,57.9,213,82.3,224.8,84.2z"/>
		<path d="M192.1,81.5c-0.2,15.8,6.8,29.1,0,40.9c-18.3,2.9-19.7-11.2-30-16.3c-5.3,3.8-4.1,14.1-8.2,19.1
			c-10.3,1.2-12.8-5.4-19.1-8.2c6.7-21.3,3.4-51.7,5.4-70.8c23.4-1.6,20.9,22.7,32.7,32.7c1.4-11.8-1-42.3,8.2-54.5
			C201.2,33.3,192.4,59.7,192.1,81.5z"/>
		<path d="M151.3,174.1c5.3,22.9,0.3,61.8-32.7,54.5c-4.3-1-22.9-14.2-24.5-19.1c-4.4-13.6,0.9-36.3,8.2-43.6
			C115.9,152.2,133.5,161.5,151.3,174.1z M115.9,204.1c12.4,2.6,17.2-11.4,10.9-19.1C116.9,185.1,114.8,193,115.9,204.1z"/>
		<path d="M115.9,46.1c15.2,2.5,17.4,18.5,13.6,40.9c-3.9,22.8-8.2,39.7-24.5,40.9c-26.1,1.8-33.4-45.5-24.5-79
			c22.7,3.5,17.9,28.2,16.3,46.3c7.4,2.3,6-2.3,8.2-5.4C110.5,81.6,112.6,61.4,115.9,46.1z"/>
		<path d="M85.9,193.2c0.3,15.4,12,30.9,5.4,46.3c-11.8-2.8-17.9-11.1-24.5-19.1c-8.6-1.3-6.2,8.4-16.3,5.4
			c-1.8,13.8,6.2,20.6-2.7,27.2C35,251.4,29.6,242.2,26,231.3c-7.1-3.8-14.9-6.9-16.3-16.3c0.4-9.6,12.2-7.8,19.1-10.9
			c1.3-15.1-3.8-36.5,5.4-43.6c22.6,1.3,22.4,19.4,19.1,40.9c11.9,0.8,13.5-11.8,13.6-19.1c0.2-6.6-5-22.5,5.4-30
			c8.3-2,8,4.7,16.3,2.7C97.7,167.8,85.7,180.8,85.9,193.2z"/>
		<path d="M75,57c2.9,19.3-10.5,22.2-16.3,32.7c0.6,18.7-1.3,35-5.4,49c-16-3.6-23.7-28.3-16.3-46.3c-1-9.6-14.4-11.5-19.2-21.8
			c-0.8-1.8-1.3-12.1-2.7-19.1C12.6,39.6,11.2,36,17.8,27C40,25.7,37.5,49.2,42.3,65.2c13.8,1,10.7-14.8,21.8-16.4
			C66.8,52.5,71.4,54.3,75,57z"/>
	</g>
</g>
</svg>
