<svg width="300" height="300" version="1.1" viewBox="0 0 300 300" xml:space="preserve" xmlns="http://www.w3.org/2000/svg">
<rect width="300" height="300" ry="30" fill="#222" stroke-linejoin="bevel" stroke-width="4"/><path transform="matrix(1.0479 0 0 1.0479 3.3994 7.56)" d="m202.52 83.409c5.898 39.252-21.355 45.151-33.151 66.505 1.2203 38.032-2.644 71.183-10.983 99.657-32.541-7.3217-48.201-57.557-33.151-94.165-2.0338-19.525-29.287-23.389-39.049-44.337-1.627-3.6608-2.6439-24.609-5.4913-38.846-5.0845-24.202-7.9318-31.524 5.4913-49.828 45.151-2.6439 40.066 45.151 49.828 77.691 28.067 2.0338 21.762-30.1 44.337-33.354 5.4913 7.5251 14.847 11.186 22.168 16.677z" fill="#fff" stroke-width="2.0338"/>
</svg>
